<svg width="143" height="180" viewBox="0 0 143 180" fill="none" xmlns="http://www.w3.org/2000/svg">
<path d="M53.4 63.84C61.16 63.84 67.2 66.44 71.52 71.64C75.92 76.84 78.12 83.88 78.12 92.76V132H51.6V96.12C51.6 92.92 50.72 90.4 48.96 88.56C47.28 86.64 45 85.68 42.12 85.68C39.16 85.68 36.84 86.64 35.16 88.56C33.48 90.4 32.64 92.92 32.64 96.12V132H6V43.2H32.64V74.64C34.72 71.44 37.48 68.84 40.92 66.84C44.44 64.84 48.6 63.84 53.4 63.84Z" fill="white"/>
<path fill-rule="evenodd" clip-rule="evenodd" d="M62.5 0H49V14.2264V21.0566V31.8679V35.0755V48.3208V49.9245V51.1132V53.1321V63.9434V69.1698V82C49 83.6569 50.3431 85 52 85H63.5L63.5137 85H74C75.6569 85 77 83.6568 77 82V65.9622V63.9434V53.132V49.9245V47.9056V37.0943V35.0754V31.8679V21.0566V19.0377V0H63.5H62.5Z" fill="white"/>
<path d="M49 65V85H102V65H49Z" fill="white"/>
<path d="M91.176 132.224C89.3627 132.224 87.7307 131.851 86.28 131.104C84.8293 130.357 83.688 129.291 82.856 127.904C82.0453 126.496 81.64 124.853 81.64 122.976C81.64 121.099 82.0453 119.467 82.856 118.08C83.688 116.672 84.8293 115.595 86.28 114.848C87.7307 114.101 89.3627 113.728 91.176 113.728C92.9893 113.728 94.6213 114.101 96.072 114.848C97.5227 115.595 98.6533 116.672 99.464 118.08C100.296 119.467 100.712 121.099 100.712 122.976C100.712 124.853 100.296 126.496 99.464 127.904C98.6533 129.291 97.5227 130.357 96.072 131.104C94.6213 131.851 92.9893 132.224 91.176 132.224ZM91.176 126.08C91.8373 126.08 92.392 125.824 92.84 125.312C93.288 124.779 93.512 124 93.512 122.976C93.512 121.952 93.288 121.184 92.84 120.672C92.392 120.139 91.8373 119.872 91.176 119.872C90.5147 119.872 89.96 120.139 89.512 120.672C89.064 121.184 88.84 121.952 88.84 122.976C88.84 124 89.0533 124.779 89.48 125.312C89.928 125.824 90.4933 126.08 91.176 126.08ZM110.048 116.416C110.496 115.584 111.136 114.933 111.968 114.464C112.821 113.973 113.834 113.728 115.008 113.728C116.416 113.728 117.685 114.101 118.816 114.848C119.946 115.573 120.832 116.64 121.472 118.048C122.133 119.435 122.464 121.077 122.464 122.976C122.464 124.875 122.133 126.528 121.472 127.936C120.832 129.323 119.946 130.389 118.816 131.136C117.685 131.861 116.416 132.224 115.008 132.224C113.834 132.224 112.821 131.989 111.968 131.52C111.136 131.029 110.496 130.368 110.048 129.536V140.64H102.944V113.952H110.048V116.416ZM115.264 122.976C115.264 122.016 115.018 121.269 114.528 120.736C114.037 120.203 113.408 119.936 112.64 119.936C111.872 119.936 111.242 120.203 110.752 120.736C110.261 121.269 110.016 122.016 110.016 122.976C110.016 123.936 110.261 124.683 110.752 125.216C111.242 125.749 111.872 126.016 112.64 126.016C113.408 126.016 114.037 125.749 114.528 125.216C115.018 124.683 115.264 123.936 115.264 122.976ZM142.166 122.816C142.166 123.307 142.134 123.776 142.07 124.224H130.646C130.752 125.781 131.403 126.56 132.598 126.56C133.366 126.56 133.92 126.208 134.262 125.504H141.782C141.526 126.784 140.982 127.936 140.15 128.96C139.339 129.963 138.304 130.763 137.046 131.36C135.808 131.936 134.443 132.224 132.95 132.224C131.158 132.224 129.558 131.851 128.15 131.104C126.763 130.357 125.675 129.291 124.886 127.904C124.118 126.496 123.734 124.853 123.734 122.976C123.734 121.099 124.118 119.467 124.886 118.08C125.675 116.672 126.763 115.595 128.15 114.848C129.558 114.101 131.158 113.728 132.95 113.728C134.742 113.728 136.331 114.101 137.718 114.848C139.126 115.573 140.214 116.619 140.982 117.984C141.771 119.349 142.166 120.96 142.166 122.816ZM134.966 121.12C134.966 120.523 134.774 120.075 134.39 119.776C134.006 119.456 133.526 119.296 132.95 119.296C131.691 119.296 130.955 119.904 130.742 121.12H134.966Z" fill="white"/>
<path d="M108.184 65.512C106.947 65.512 105.955 65.1813 105.208 64.52C104.461 63.8587 104.088 63.0267 104.088 62.024C104.088 61 104.461 60.1573 105.208 59.496C105.955 58.8133 106.947 58.472 108.184 58.472C109.4 58.472 110.381 58.8133 111.128 59.496C111.875 60.1573 112.248 61 112.248 62.024C112.248 63.0267 111.875 63.8587 111.128 64.52C110.381 65.1813 109.4 65.512 108.184 65.512ZM111.704 66.952V85H104.6V66.952H111.704ZM125.313 65.672C124.929 65.6293 124.662 65.608 124.513 65.608C123.979 65.608 123.574 65.7147 123.297 65.928C123.019 66.12 122.827 66.4613 122.72 66.952H125.313V72.872H122.657V85H115.553V72.872H113.633V66.952H115.553C115.595 64.6053 116.331 62.792 117.761 61.512C119.211 60.2107 121.238 59.56 123.841 59.56C124.139 59.56 124.63 59.5813 125.313 59.624V65.672ZM138.457 78.952V85H135.769C130.82 85 128.345 82.536 128.345 77.608V72.872H126.105V66.952H128.345V62.6H135.449V66.952H138.393V72.872H135.449V77.736C135.449 78.1627 135.545 78.472 135.737 78.664C135.95 78.856 136.292 78.952 136.761 78.952H138.457Z" fill="white"/>
</svg>
