<svg width="14" height="17" viewBox="0 0 14 17" fill="none" xmlns="http://www.w3.org/2000/svg">
<path d="M12.9692 12.8938L11.8446 11.7692V7.41026C11.8446 4.73385 10.4149 2.49333 7.92154 1.90051V1.30769C7.92154 0.584103 7.33744 0 6.61385 0C5.89026 0 5.30616 0.584103 5.30616 1.30769V1.90051C2.80411 2.49333 1.38308 4.72513 1.38308 7.41026V11.7692L0.258467 12.8938C-0.290763 13.4431 0.0928262 14.3846 0.868724 14.3846H12.3503C13.1349 14.3846 13.5185 13.4431 12.9692 12.8938ZM10.101 12.641H3.12667V7.41026C3.12667 5.24821 4.44308 3.48718 6.61385 3.48718C8.78462 3.48718 10.101 5.24821 10.101 7.41026V12.641ZM6.61385 17C7.57283 17 8.35744 16.2154 8.35744 15.2564H4.87026C4.87026 15.7188 5.05396 16.1623 5.38095 16.4893C5.70793 16.8163 6.15142 17 6.61385 17Z" fill="url(#paint0_linear_136_309)"/>
<defs>
<linearGradient id="paint0_linear_136_309" x1="-0.360552" y1="0.435897" x2="13.5882" y2="17" gradientUnits="userSpaceOnUse">
<stop offset="0.531035" stop-color="white"/>
<stop offset="0.531697" stop-color="#498553"/>
</linearGradient>
</defs>
</svg>
