<svg width="18" height="18" viewBox="0 0 18 18" fill="none" xmlns="http://www.w3.org/2000/svg">
<path d="M5.23575 2.25C5.40341 1.91207 5.66213 1.62769 5.98275 1.42892C6.30337 1.23015 6.67314 1.12489 7.05038 1.125H12.2625C13.1874 1.125 14.0745 1.49243 14.7285 2.14647C15.3826 2.8005 15.75 3.68756 15.75 4.6125V12.9004C15.7501 13.2776 15.6449 13.6474 15.4461 13.968C15.2473 14.2886 14.9629 14.5473 14.625 14.715V4.6125C14.625 3.98593 14.3761 3.38502 13.933 2.94196C13.49 2.49891 12.8891 2.25 12.2625 2.25H5.23575ZM5.4 3.375C4.86294 3.375 4.34787 3.58835 3.96811 3.96811C3.58835 4.34787 3.375 4.86294 3.375 5.4V16.3125C3.37519 16.4083 3.39987 16.5025 3.44668 16.5861C3.49349 16.6697 3.56088 16.74 3.64247 16.7903C3.72406 16.8405 3.81714 16.8691 3.91287 16.8733C4.00861 16.8775 4.10383 16.8572 4.1895 16.8142L8.4375 14.6925L12.6866 16.8154C12.7723 16.8581 12.8675 16.8782 12.9632 16.8738C13.0589 16.8695 13.1518 16.8407 13.2333 16.7904C13.3148 16.74 13.382 16.6697 13.4287 16.5861C13.4754 16.5024 13.4999 16.4083 13.5 16.3125V5.4C13.5 4.86294 13.2867 4.34787 12.9069 3.96811C12.5271 3.58835 12.0121 3.375 11.475 3.375H5.4ZM4.5 5.4C4.5 5.16131 4.59482 4.93239 4.7636 4.7636C4.93239 4.59482 5.16131 4.5 5.4 4.5H11.475C11.7137 4.5 11.9426 4.59482 12.1114 4.7636C12.2802 4.93239 12.375 5.16131 12.375 5.4V15.4012L8.6895 13.5596C8.61128 13.5204 8.52499 13.5 8.4375 13.5C8.35001 13.5 8.26372 13.5204 8.1855 13.5596L4.5 15.4012V5.4Z" fill="url(#paint0_linear_136_304)"/>
<defs>
<linearGradient id="paint0_linear_136_304" x1="3.375" y1="1.125" x2="15.75" y2="16.875" gradientUnits="userSpaceOnUse">
<stop offset="0.591745" stop-color="white"/>
<stop offset="0.592099" stop-color="#498553"/>
</linearGradient>
</defs>
</svg>
