<svg width="16" height="16" viewBox="0 0 16 16" fill="none" xmlns="http://www.w3.org/2000/svg">
<path fill-rule="evenodd" clip-rule="evenodd" d="M8 0.5C6.01088 0.5 4.10322 1.29018 2.6967 2.6967C1.29018 4.10322 0.5 6.01088 0.5 8C0.5 9.98912 1.29018 11.8968 2.6967 13.3033C4.10322 14.7098 6.01088 15.5 8 15.5H11.75C12.915 15.5 13.4975 15.5 13.9567 15.31C14.2601 15.1844 14.5358 15.0002 14.768 14.768C15.0002 14.5358 15.1844 14.2601 15.31 13.9567C15.5 13.4975 15.5 12.915 15.5 11.75V8C15.5 6.01088 14.7098 4.10322 13.3033 2.6967C11.8968 1.29018 9.98912 0.5 8 0.5ZM4.66667 7.16667C4.66667 6.94565 4.75446 6.73369 4.91074 6.57741C5.06702 6.42113 5.27899 6.33333 5.5 6.33333H10.5C10.721 6.33333 10.933 6.42113 11.0893 6.57741C11.2455 6.73369 11.3333 6.94565 11.3333 7.16667C11.3333 7.38768 11.2455 7.59964 11.0893 7.75592C10.933 7.9122 10.721 8 10.5 8H5.5C5.27899 8 5.06702 7.9122 4.91074 7.75592C4.75446 7.59964 4.66667 7.38768 4.66667 7.16667ZM7.16667 10.5C7.16667 10.279 7.25446 10.067 7.41074 9.91074C7.56702 9.75446 7.77899 9.66667 8 9.66667H10.5C10.721 9.66667 10.933 9.75446 11.0893 9.91074C11.2455 10.067 11.3333 10.279 11.3333 10.5C11.3333 10.721 11.2455 10.933 11.0893 11.0893C10.933 11.2455 10.721 11.3333 10.5 11.3333H8C7.77899 11.3333 7.56702 11.2455 7.41074 11.0893C7.25446 10.933 7.16667 10.721 7.16667 10.5Z" fill="white" fill-opacity="0.5"/>
</svg>
