<svg width="16" height="18" viewBox="0 0 16 18" fill="none" xmlns="http://www.w3.org/2000/svg">
<path d="M13.0003 10.4286C13.5686 10.4286 14.1136 10.6544 14.5155 11.0562C14.9174 11.4581 15.1431 12.0031 15.1431 12.5714V13.0822C15.1431 15.6372 12.136 17.5714 8.00028 17.5714C3.86456 17.5714 0.857422 15.7379 0.857422 13.0822V12.5714C0.857422 12.0031 1.08319 11.4581 1.48505 11.0562C1.88691 10.6544 2.43196 10.4286 3.00028 10.4286H13.0003ZM8.00028 0.428589C8.56309 0.428589 9.12038 0.539442 9.64035 0.754819C10.1603 0.970197 10.6328 1.28588 11.0307 1.68385C11.4287 2.08181 11.7444 2.55426 11.9598 3.07423C12.1751 3.5942 12.286 4.15149 12.286 4.7143C12.286 5.27711 12.1751 5.83441 11.9598 6.35437C11.7444 6.87434 11.4287 7.3468 11.0307 7.74476C10.6328 8.14273 10.1603 8.45841 9.64035 8.67379C9.12038 8.88916 8.56309 9.00002 8.00028 9.00002C6.86364 9.00002 5.77355 8.54849 4.96982 7.74476C4.16609 6.94103 3.71456 5.85094 3.71456 4.7143C3.71456 3.57766 4.16609 2.48757 4.96982 1.68385C5.77355 0.880118 6.86364 0.428589 8.00028 0.428589Z" fill="white" fill-opacity="0.5"/>
</svg>
