<svg width="24" height="24" viewBox="0 0 24 24" fill="none" xmlns="http://www.w3.org/2000/svg">
<path d="M12.0053 9.7001C14.2517 9.74755 16.2815 10.6282 17.8415 12.1159L16.4241 13.0705C14.9605 11.5805 13.0065 10.6677 10.8712 10.6677C10.5867 10.6677 10.2814 10.6908 9.98598 10.7211L11.4021 9.74845C11.5091 9.74649 11.6062 9.73493 11.6982 9.72397L11.7003 9.72372C11.8027 9.71153 11.899 9.70017 12.0053 9.7001Z" stroke="url(#paint0_linear_85_1000)" stroke-width="0.2"/>
<path d="M8.25712 10.4679C9.28036 10.035 10.2061 9.82811 10.9017 9.74112C10.3932 10.0555 9.88335 10.3769 9.37328 10.73L9.44125 10.9116C9.87812 10.8631 10.3093 10.8152 10.7878 10.8152C13.039 10.8152 15.0993 11.7252 16.6334 13.2113L16.6897 13.2659L16.7561 13.2242L18.3889 12.1979C20.254 13.9035 21.4702 16.3842 21.4994 19.1001H12.0012L8.26917 19.0032L8.26822 19.0031L2.50055 18.9078C2.51577 17.7469 2.79888 16.6303 3.21973 15.6016L3.22002 15.6009C3.41138 15.1225 4.75585 11.9548 8.25712 10.4679Z" stroke="url(#paint1_linear_85_1000)" stroke-width="0.2"/>
<path d="M8.30583 19.0518L8.30553 19.0518L2.5006 18.9569C2.51759 17.7574 2.84369 16.6474 3.30628 15.6704L3.30647 15.67C4.44444 13.2379 6.76785 11.4256 9.51717 10.9957C9.94894 10.9475 10.375 10.9 10.8479 10.9C13.0758 10.9 15.115 11.8057 16.6335 13.2849C18.0833 14.7433 19.0714 16.8037 19.0993 19.1H10.8008L8.30583 19.0518Z" stroke="url(#paint2_linear_85_1000)" stroke-width="0.2"/>
<path d="M6.1 19.0478V15.7001H9.5V19.0986L6.1 19.0478Z" stroke="url(#paint3_linear_85_1000)" stroke-width="0.2"/>
<path d="M13.2542 9.8406C13.2542 8.89989 13.2542 7.88681 13.2542 6.9461C13.2542 6.22247 13.2542 5.49884 13.2542 4.84758C13.4713 4.99231 13.6884 5.13703 14.0502 5.13703C14.3397 5.13703 14.4844 4.91994 14.8462 4.84758C15.0633 4.77522 15.4251 4.77522 15.8593 4.91994C15.8593 5.49884 15.8593 6.07775 15.8593 6.58428C15.5698 6.43956 15.1356 6.29484 14.7738 6.43956C14.5567 6.51192 14.4844 6.65665 14.2673 6.80137C14.0502 6.9461 13.7608 6.97178 13.2543 6.68233" stroke="url(#paint4_linear_85_1000)" stroke-width="0.2" stroke-miterlimit="10" stroke-linecap="round" stroke-linejoin="round"/>
<defs>
<linearGradient id="paint0_linear_85_1000" x1="13.7999" y1="9.6001" x2="13.7999" y2="13.2001" gradientUnits="userSpaceOnUse">
<stop offset="0.517361" stop-color="white"/>
<stop offset="0.517461" stop-color="#498553"/>
</linearGradient>
<linearGradient id="paint1_linear_85_1000" x1="11.9999" y1="9.6001" x2="11.9999" y2="19.2001" gradientUnits="userSpaceOnUse">
<stop offset="0.517361" stop-color="white"/>
<stop offset="0.517461" stop-color="#498553"/>
</linearGradient>
<linearGradient id="paint2_linear_85_1000" x1="10.7999" y1="10.8" x2="10.7999" y2="19.2" gradientUnits="userSpaceOnUse">
<stop offset="0.517361" stop-color="white"/>
<stop offset="0.517461" stop-color="#498553"/>
</linearGradient>
<linearGradient id="paint3_linear_85_1000" x1="7.8" y1="15.6001" x2="7.8" y2="19.2001" gradientUnits="userSpaceOnUse">
<stop offset="0.517361" stop-color="white"/>
<stop offset="0.517461" stop-color="#498553"/>
</linearGradient>
<linearGradient id="paint4_linear_85_1000" x1="14.5567" y1="4.80005" x2="14.5567" y2="9.8406" gradientUnits="userSpaceOnUse">
<stop offset="0.517361" stop-color="white"/>
<stop offset="0.517461" stop-color="#498553"/>
</linearGradient>
</defs>
</svg>
