<svg width="14" height="17" viewBox="0 0 14 17" fill="none" xmlns="http://www.w3.org/2000/svg">
<path d="M13.8862 4.76048C13.8088 4.6611 13.6848 4.62206 13.5683 4.66969C13.5621 4.67175 12.9488 4.80949 11.0746 3.70965C10.0837 3.12683 9.25045 2.95759 8.60013 3.20494C8.08413 3.40057 7.69694 3.8556 7.48008 4.52096C7.408 4.74176 7.31365 4.8528 7.22414 4.91085V3.0234C7.93143 2.89099 8.46925 2.27111 8.46925 1.52573C8.46925 0.684225 7.78469 0 6.94353 0C6.10203 0 5.41746 0.684225 5.41746 1.52573C5.41746 2.27111 5.9554 2.89106 6.66292 3.02344V4.84091C6.58533 4.77041 6.51048 4.66249 6.45595 4.49528C6.23871 3.82954 5.85123 3.37418 5.33519 3.17887C4.68486 2.93149 3.85195 3.10144 2.86071 3.68393C1.02524 4.76183 0.397526 4.64981 0.386239 4.65049C0.386239 4.65049 0.386239 4.65049 0.386576 4.65049C0.269726 4.6032 0.136114 4.63883 0.0593513 4.7382C-0.0180862 4.83724 -0.0198112 4.97565 0.0545513 5.07671C0.0840263 5.1168 0.786064 6.05974 1.67793 6.19541C1.80951 6.21596 1.93833 6.21769 2.06238 6.20194C2.05071 6.29479 2.05038 6.39176 2.06853 6.48941C2.10895 6.70939 2.23574 6.89509 2.4259 7.01981C2.626 7.16201 3.03269 7.31516 3.45516 7.16715C3.48156 7.26855 3.52506 7.37378 3.59496 7.47345C3.77279 7.72699 4.06368 7.8726 4.46009 7.90515C4.51079 7.90961 4.56149 7.91167 4.61189 7.91167C5.08094 7.91167 5.5459 7.73284 5.93583 7.39909C6.17455 7.19456 6.41125 6.95944 6.66288 6.67039V7.72253C6.66055 7.72324 6.658 7.72372 6.65571 7.72444C6.33715 7.82437 6.0757 8.02643 5.97006 8.23624C5.32368 8.56181 5.32998 9.12142 5.42766 9.37534C5.55944 9.72015 6.05392 9.91586 6.66284 10.111V11.0778C5.90268 11.2134 5.2933 11.3721 5.2666 11.8574C5.23851 12.3635 5.87909 12.5865 6.66284 12.8137V13.6529C5.83788 13.7956 5.1517 13.9427 5.12305 14.4586C5.09358 14.9953 5.81478 15.2137 6.66284 15.4569V16.4472C6.66284 16.6021 6.78858 16.7282 6.94345 16.7282C7.09833 16.7282 7.22407 16.6021 7.22407 16.4472V15.6239C7.53704 15.7239 7.84375 15.8401 7.90934 15.936C7.9114 16.0827 8.02653 16.2047 8.17521 16.2129C8.18001 16.2129 8.18549 16.2136 8.19029 16.2136C8.3383 16.2136 8.46235 16.0978 8.47056 15.9477C8.49655 15.4746 7.93792 15.2492 7.22407 15.0356V14.1253C7.98153 13.9895 8.58719 13.8302 8.61378 13.3451C8.64149 12.8411 8.00489 12.6179 7.22407 12.3914V11.5506C8.04622 11.4088 8.72872 11.261 8.75699 10.7466C8.7868 10.202 8.07172 9.96214 7.22407 9.69859V8.49668C7.52763 8.2809 7.78709 7.96534 7.71543 7.7919C7.66642 7.67318 7.46324 7.62836 7.22407 7.63301V6.63532C7.25988 6.67931 7.28718 6.71531 7.29498 6.72548C7.52283 6.98381 7.75994 7.2192 8.00046 7.42477C8.38968 7.75849 8.8543 7.93736 9.32302 7.93736C9.37372 7.93736 9.42442 7.9353 9.47515 7.93084C9.87123 7.89829 10.1625 7.75301 10.3407 7.49914C10.4106 7.39943 10.4537 7.29424 10.4805 7.19284C10.9026 7.3419 11.3083 7.18976 11.5008 7.05135C11.7002 6.92048 11.827 6.73478 11.8674 6.5148C11.8852 6.41715 11.8852 6.32018 11.8729 6.22733C11.9997 6.24274 12.1264 6.24034 12.2573 6.22118C13.1495 6.0855 13.8519 5.14256 13.8814 5.10248C13.9561 5.00134 13.963 4.85985 13.8862 4.76048ZM6.66292 14.8726C6.2674 14.7578 5.74825 14.5989 5.67614 14.5155C5.7571 14.3994 6.26245 14.2948 6.66292 14.2231V14.8726ZM6.66292 12.2291C6.28889 12.1186 5.88411 11.9887 5.81935 11.915C5.89203 11.8119 6.28814 11.72 6.66292 11.6494V12.2291ZM6.66292 9.51919C6.3292 9.40616 6.004 9.27686 5.95195 9.1746C5.94164 9.14861 5.86942 8.9193 6.21408 8.74095C6.34327 8.7771 6.49488 8.7855 6.66292 8.7495V9.51919ZM5.97869 1.52569C5.97869 0.993937 6.41144 0.561188 6.94353 0.561188C7.47528 0.561188 7.90735 0.993937 7.90735 1.52569C7.90735 2.05778 7.47528 2.49053 6.94353 2.49053C6.41144 2.49053 5.97869 2.05781 5.97869 1.52569ZM8.06084 13.2882C7.98989 13.3905 7.59153 13.4836 7.22414 13.5534V12.9761C7.59625 13.0861 7.99672 13.2149 8.06084 13.2882ZM8.20409 10.6897C8.12294 10.8055 7.63356 10.9071 7.22418 10.9802V10.287C7.63034 10.4155 8.14143 10.5889 8.20409 10.6897ZM12.1731 5.66603C11.9463 5.70131 11.7393 5.64615 11.5434 5.50189C11.4344 5.4207 11.2802 5.43098 11.1802 5.52791C11.0822 5.62455 11.0692 5.77871 11.1486 5.8911C11.2028 5.96753 11.3501 6.22755 11.3151 6.41396C11.3062 6.46058 11.2843 6.52189 11.1835 6.58838C11.1678 6.60004 10.7779 6.87038 10.4106 6.48866C10.3222 6.39788 10.183 6.37834 10.072 6.43965C9.96104 6.50168 9.90554 6.63188 9.93704 6.75521C9.95485 6.82545 9.97953 7.03856 9.8788 7.17904C9.80136 7.28835 9.64923 7.35307 9.42858 7.3716C9.05991 7.40141 8.68233 7.26949 8.36504 6.99848C8.14507 6.8097 7.92648 6.5928 7.73939 6.38483C7.72912 6.36908 7.48 5.99764 7.06885 5.79206C7.06604 5.79064 7.06293 5.79098 7.06008 5.78966C7.05175 5.7858 7.04302 5.78396 7.03428 5.78096C7.02051 5.7762 7.0069 5.77395 6.99262 5.77136C6.97878 5.76889 6.96554 5.76465 6.95166 5.76424C6.94874 5.76416 6.94634 5.76255 6.94345 5.76255C6.93779 5.76255 6.93303 5.76544 6.92748 5.76578C6.91364 5.76656 6.90063 5.76997 6.88683 5.77282C6.87284 5.77579 6.85908 5.77725 6.84565 5.78228C6.83665 5.78565 6.8287 5.78985 6.82015 5.79409C6.81569 5.79626 6.81078 5.79608 6.80635 5.79851C6.43769 6.00409 6.21978 6.32344 6.21978 6.32824C6.00839 6.56809 5.78976 6.78461 5.5705 6.97271C5.25393 7.24339 4.8736 7.37325 4.50663 7.34584C4.28564 7.32735 4.13418 7.26259 4.0564 7.15361C3.95601 7.0128 3.98069 6.79969 3.99783 6.73185C4.03176 6.60818 3.97728 6.47726 3.8659 6.41389C3.75456 6.35119 3.61443 6.37039 3.52533 6.4629C3.17755 6.82335 2.81849 6.60784 2.74311 6.55643C2.65128 6.49613 2.62938 6.43515 2.62079 6.38854C2.5855 6.20216 2.73284 5.9421 2.78695 5.86567C2.86679 5.75329 2.85344 5.59913 2.75508 5.50249C2.65743 5.40623 2.50394 5.3949 2.39223 5.47609C1.85943 5.86804 1.26771 5.49904 0.891851 5.1588C1.35336 5.06048 2.07051 4.79869 3.145 4.16756C3.98204 3.67624 4.65258 3.52103 5.13636 3.70365C5.49269 3.83865 5.75722 4.16348 5.92203 4.6692C6.11721 5.26714 6.55979 5.4978 6.91454 5.52667C6.91465 5.52667 6.91484 5.52679 6.91495 5.52679C7.15686 5.5542 7.74479 5.51891 8.01344 4.69489C8.17859 4.1895 8.4424 3.86468 8.79877 3.72934C9.28462 3.54536 9.95343 3.70193 10.7908 4.19325C11.866 4.82471 12.5835 5.0865 13.0446 5.18449C12.8049 5.40154 12.4904 5.61773 12.1731 5.66603Z" fill="url(#paint0_linear_85_994)"/>
<defs>
<linearGradient id="paint0_linear_85_994" x1="-0.0047425" y1="4.76407" x2="13.9453" y2="16.7266" gradientUnits="userSpaceOnUse">
<stop offset="0.403722" stop-color="white"/>
<stop offset="0.408728" stop-color="#498553"/>
</linearGradient>
</defs>
</svg>
